<?xml version="1.0" standalone="no"?><!DOCTYPE svg PUBLIC "-//W3C//DTD SVG 1.1//EN" "http://www.w3.org/Graphics/SVG/1.1/DTD/svg11.dtd">
<svg x="0.0000mm" y="0.0000mm" width="111.6540mm" height="26.4580mm" viewBox="0.0000 0.0000 111.6540 26.4580" version="1.1" xmlns="http://www.w3.org/2000/svg" shape-rendering="crispEdges">
<title>TBarCode - 11.10.2.16065</title>
<desc>BarCode licensed to MEM:TEC-IT Datenverarbeitung GmbH Internal License</desc>
<g fill="rgb(0%,0%,0%)">
</g>
<g fill="rgb(100%,100%,100%)">
<rect x="0.0000" y="0.0000" width="111.6540" height="26.4580" />
</g>
<g fill="rgb(0%,0%,0%)">
</g>
<g fill="rgb(0%,0%,0%)">
<rect x="0.0000" y="0.0000" width="1.0583" height="20.1864" />
<rect x="1.5875" y="0.0000" width="0.5292" height="20.1864" />
<rect x="3.1750" y="0.0000" width="0.5292" height="20.1864" />
<rect x="5.8208" y="0.0000" width="0.5292" height="20.1864" />
<rect x="6.8792" y="0.0000" width="1.5875" height="20.1864" />
<rect x="8.9958" y="0.0000" width="1.0583" height="20.1864" />
<rect x="11.6416" y="0.0000" width="0.5292" height="20.1864" />
<rect x="13.7583" y="0.0000" width="0.5292" height="20.1864" />
<rect x="15.8750" y="0.0000" width="1.0583" height="20.1864" />
<rect x="17.4625" y="0.0000" width="1.5875" height="20.1864" />
<rect x="19.5791" y="0.0000" width="1.5875" height="20.1864" />
<rect x="21.6958" y="0.0000" width="1.0583" height="20.1864" />
<rect x="23.2833" y="0.0000" width="0.5292" height="20.1864" />
<rect x="24.3416" y="0.0000" width="1.0583" height="20.1864" />
<rect x="26.9875" y="0.0000" width="0.5292" height="20.1864" />
<rect x="29.1041" y="0.0000" width="1.5875" height="20.1864" />
<rect x="31.2208" y="0.0000" width="1.5875" height="20.1864" />
<rect x="33.3375" y="0.0000" width="1.0583" height="20.1864" />
<rect x="34.9249" y="0.0000" width="0.5292" height="20.1864" />
<rect x="36.5124" y="0.0000" width="1.0583" height="20.1864" />
<rect x="38.0999" y="0.0000" width="1.5875" height="20.1864" />
<rect x="40.7458" y="0.0000" width="0.5292" height="20.1864" />
<rect x="42.8624" y="0.0000" width="1.5875" height="20.1864" />
<rect x="44.9791" y="0.0000" width="1.0583" height="20.1864" />
<rect x="46.5666" y="0.0000" width="0.5292" height="20.1864" />
<rect x="48.1541" y="0.0000" width="1.0583" height="20.1864" />
<rect x="49.7416" y="0.0000" width="0.5292" height="20.1864" />
<rect x="52.3874" y="0.0000" width="0.5292" height="20.1864" />
<rect x="53.9749" y="0.0000" width="2.1167" height="20.1864" />
<rect x="57.1499" y="0.0000" width="0.5292" height="20.1864" />
<rect x="58.2082" y="0.0000" width="1.0583" height="20.1864" />
<rect x="61.3832" y="0.0000" width="0.5292" height="20.1864" />
<rect x="62.4416" y="0.0000" width="0.5292" height="20.1864" />
<rect x="64.0291" y="0.0000" width="0.5292" height="20.1864" />
<rect x="65.6166" y="0.0000" width="1.0583" height="20.1864" />
<rect x="67.2041" y="0.0000" width="1.5875" height="20.1864" />
<rect x="69.8499" y="0.0000" width="0.5292" height="20.1864" />
<rect x="70.9082" y="0.0000" width="2.1167" height="20.1864" />
<rect x="74.0832" y="0.0000" width="0.5292" height="20.1864" />
<rect x="75.6707" y="0.0000" width="0.5292" height="20.1864" />
<rect x="77.2582" y="0.0000" width="2.1167" height="20.1864" />
<rect x="79.9040" y="0.0000" width="0.5292" height="20.1864" />
<rect x="81.4915" y="0.0000" width="0.5292" height="20.1864" />
<rect x="83.0790" y="0.0000" width="0.5292" height="20.1864" />
<rect x="84.1374" y="0.0000" width="1.0583" height="20.1864" />
<rect x="87.3124" y="0.0000" width="0.5292" height="20.1864" />
<rect x="88.8999" y="0.0000" width="2.1167" height="20.1864" />
<rect x="91.5457" y="0.0000" width="0.5292" height="20.1864" />
<rect x="93.1332" y="0.0000" width="0.5292" height="20.1864" />
<rect x="94.1915" y="0.0000" width="1.0583" height="20.1864" />
<rect x="96.3082" y="0.0000" width="0.5292" height="20.1864" />
<rect x="98.9540" y="0.0000" width="0.5292" height="20.1864" />
<rect x="100.5415" y="0.0000" width="1.5875" height="20.1864" />
<rect x="103.1873" y="0.0000" width="1.0583" height="20.1864" />
<rect x="104.7748" y="0.0000" width="1.0583" height="20.1864" />
<rect x="107.4207" y="0.0000" width="1.5875" height="20.1864" />
<rect x="109.5373" y="0.0000" width="0.5292" height="20.1864" />
<rect x="110.5957" y="0.0000" width="1.0583" height="20.1864" />
</g>
<g fill="rgb(0%,0%,0%)">
<text x="55.8270" y="25.2821" transform="rotate(360 55.8270,25.2821)" text-anchor="middle" font-family="Arial" font-size="5.6444" >MCPDP-Ogun-state</text>
</g>
</svg>
