<svg height="512pt" viewBox="0 0 512 512" width="512pt" xmlns="http://www.w3.org/2000/svg"><path d="m512 256c0 132.304688-100.371094 241.171875-229.125 254.609375-4.203125.441406-8.445312.773437-12.707031 1.003906-4.691407.261719-9.414063.386719-14.167969.386719s-9.476562-.125-14.171875-.386719c-4.261719-.230469-8.503906-.574219-12.714844-1.015625-128.75-13.433594-229.113281-122.292968-229.113281-254.597656 0-32.078125 5.902344-62.777344 16.664062-91.074219 14.882813-39.046875 39.027344-73.527343 69.78125-100.71875 45.148438-39.953125 104.519532-64.207031 169.554688-64.207031s124.40625 24.253906 169.554688 64.199219c30.753906 27.199219 54.898437 61.679687 69.777343 100.726562 10.765625 28.296875 16.667969 58.996094 16.667969 91.074219zm0 0" fill="#ed96d0"/><path d="m121.234375 193.425781c9.640625 9.640625 16.136719 20.855469 19.140625 31.746094 3.960938 14.269531 1.902344 27.980469-6.9375 36.820313-15.5625 15.5625-46.261719 10.09375-68.5625-12.203126-18.542969-18.542968-25.445312-42.882812-18.292969-59.503906 1.445313-3.371094 3.46875-6.429687 6.09375-9.054687 15.570313-15.570313 46.257813-10.105469 68.558594 12.195312zm0 0" fill="#ffb92e"/><path d="m121.234375 193.425781c9.640625 9.640625 16.136719 20.855469 19.140625 31.746094-1.445312 3.371094-3.46875 6.429687-6.09375 9.054687-15.570312 15.570313-46.261719 10.09375-68.566406-12.207031-9.636719-9.640625-16.128906-20.84375-19.132813-31.734375 1.445313-3.371094 3.46875-6.429687 6.09375-9.054687 15.570313-15.570313 46.257813-10.105469 68.558594 12.195312zm0 0" fill="#ffd62c"/><path d="m447.121094 249.785156c-9.640625 9.640625-20.855469 16.140625-31.742188 19.144532-14.269531 3.957031-27.980468 1.902343-36.820312-6.9375-15.5625-15.5625-10.097656-46.265626 12.203125-68.566407 18.539062-18.539062 42.878906-25.441406 59.5-18.289062 3.375 1.445312 6.429687 3.46875 9.054687 6.09375 15.574219 15.570312 10.105469 46.253906-12.195312 68.554687zm0 0" fill="#ffb92e"/><path d="m447.121094 249.785156c-9.640625 9.640625-20.855469 16.140625-31.742188 19.144532-3.375-1.449219-6.429687-3.472657-9.054687-6.097657-15.570313-15.570312-10.097657-46.261719 12.203125-68.5625 9.640625-9.640625 20.847656-16.128906 31.734375-19.132812 3.375 1.445312 6.429687 3.464843 9.054687 6.09375 15.574219 15.570312 10.105469 46.253906-12.195312 68.554687zm0 0" fill="#ffd62c"/><path d="m495.335938 164.925781c-7.261719 13.972657-17.785157 26.699219-27.660157 37.304688-4.554687 4.890625-12.738281 1.347656-12.277343-5.328125.34375-5.070313-4.597657-8.851563-9.394532-7.203125l-14.816406 5.089843c-4.085938 1.410157-8.472656-1.136718-9.277344-5.378906l-.023437-.097656c-1.503907-7.898438 1.589843-15.953125 7.953125-20.875 16.53125-12.789062 45.148437-38.921875 28.328125-55.746094-22.976563-22.976562-73.488281-14.636718-73.488281 27.921875 0 24.53125-11.367188 47.007813-30.21875 64.414063-23 23-43.355469 64.941406-30.082032 97.617187 13.226563 32.558594 76.097656 89.421875-41.503906 207.964844-8.828125.917969-17.792969 1.390625-26.875 1.390625-9.078125 0-18.054688-.472656-26.882812-1.402344-117.59375-118.53125-54.722657-175.394531-41.503907-207.953125 13.28125-32.675781-7.085937-74.617187-30.082031-97.617187-18.851562-17.40625-30.207031-39.882813-30.207031-64.414063 0-42.5625-50.511719-50.898437-73.488281-27.921875-16.824219 16.824219 11.785156 42.957032 28.316406 55.746094 6.363281 4.921875 9.457031 12.976562 7.949218 20.875l-.007812.097656c-.816406 4.242188-5.203125 6.789063-9.289062 5.378906l-14.808594-5.089843c-4.804688-1.648438-9.738282 2.132812-9.390625 7.203125.449219 6.675781-7.722657 10.21875-12.289063 5.328125-9.863281-10.605469-20.398437-23.332031-27.648437-37.304688-12.46875-23.949219-15.300781-51.511719 11.292969-78.105469 18.746093-18.746093 38.847656-23.15625 58.484374-22.613281 32.433594.867188 63.601563 15.203125 85.335938.722657 22.570312-15.203126 52.015625-24.410157 84.21875-24.410157s61.640625 9.207031 84.207031 24.410157c21.734375 14.492187 52.914063.136718 85.347657-.730469 19.636718-.535157 39.738281 3.875 58.484374 22.621093 26.59375 26.59375 23.75 54.15625 11.296876 78.105469zm0 0" fill="#ff648d"/><path d="m353.636719 123.945312c-18.964844 12.925782-62.957031 52.140626-62.957031 137.851563 0 45.078125 8.382812 67.386719 18.210937 78.046875 12.96875 14.042969 16.457031 34.375 8.070313 51.542969-18.035157 36.863281-41.035157 88.09375-46.792969 120.226562-4.691407.261719-9.414063.386719-14.167969.386719s-9.476562-.125-14.167969-.386719c-5.757812-32.128906-28.757812-83.363281-46.792969-120.226562-8.390624-17.167969-4.898437-37.5 8.070313-51.542969 9.832031-10.660156 18.210937-32.96875 18.210937-78.046875 0-85.710937-43.992187-124.925781-62.957031-137.851563-5.140625-3.511718-7.773437-9.675781-6.75-15.820312l.011719-.113281c1.660156-9.96875 12.035156-15.882813 21.480469-12.277344 20.042969 7.636719 53.375 18.335937 82.894531 18.335937 29.515625 0 62.851562-10.699218 82.890625-18.335937 9.445313-3.605469 19.820313 2.308594 21.484375 12.277344l.007812.113281c1.027344 6.144531-1.605468 12.308594-6.746093 15.820312zm0 0" fill="#ea2f69"/><g fill="#ff648d"><path d="m291.234375 380.261719h-70.46875c-5.074219 0-9.191406 4.117187-9.191406 9.191406 0 5.078125 4.117187 9.195313 9.191406 9.195313h70.46875c5.074219 0 9.191406-4.117188 9.191406-9.195313 0-5.074219-4.117187-9.191406-9.191406-9.191406zm0 0"/><path d="m291.234375 345.542969h-70.46875c-5.074219 0-9.191406 4.113281-9.191406 9.191406 0 5.074219 4.117187 9.191406 9.191406 9.191406h70.46875c5.074219 0 9.191406-4.117187 9.191406-9.191406 0-5.078125-4.117187-9.191406-9.191406-9.191406zm0 0"/><path d="m291.234375 135.195312h-70.46875c-5.074219 0-9.191406 4.113282-9.191406 9.191407 0 5.074219 4.117187 9.191406 9.191406 9.191406h70.46875c5.074219 0 9.191406-4.117187 9.191406-9.191406 0-5.078125-4.117187-9.191407-9.191406-9.191407zm0 0"/></g></svg>